<?xml version="1.0" encoding="utf-8"?>
<!-- Generator: Adobe Illustrator 23.0.1, SVG Export Plug-In . SVG Version: 6.00 Build 0)  -->
<svg version="1.1" id="Layer_1" xmlns="http://www.w3.org/2000/svg" xmlns:xlink="http://www.w3.org/1999/xlink" x="0px" y="0px"
	 viewBox="0 0 1000 1000" enable-background="new 0 0 1000 1000" xml:space="preserve">
<path fill="#0EB7E5" d="M500,500C313.057,546.61,146.39,379.943,0,0h111.111C178.173,346.773,307.803,513.44,500,500z"/>
<path fill="#0EB7E5" d="M500,500C308.389,479.861,215.796,313.194,222.222,0h111.111C259.241,280.227,314.797,446.894,500,500z"/>
<path fill="#0EB7E5" d="M500,500C326.832,415.54,308.314,248.874,444.444,0h111.111C362.647,220.087,344.129,386.753,500,500z"/>
<path fill="#0EB7E5" d="M500,500C366.162,361.407,421.718,194.741,666.667,0h111.11C484.854,173.606,392.262,340.272,500,500z"/>
<path fill="#0EB7E5" d="M500,500C421.636,323.99,551.265,157.324,888.889,0H1000C620.057,146.39,453.39,313.056,500,500z"/>
<path fill="#0EB7E5" d="M500,500c-13.44-192.197,153.227-321.827,500-388.889v111.111C686.806,215.796,520.139,308.389,500,500z"/>
<path fill="#0EB7E5" d="M500,500c53.106-185.203,219.772-240.759,500-166.666v111.111C751.126,308.314,584.46,326.833,500,500z"/>
<path fill="#0EB7E5" d="M500,500c113.247-155.871,279.913-137.352,500,55.556v111.111C805.26,421.718,638.593,366.163,500,500z"/>
<path fill="#0EB7E5" d="M500,500c159.727-107.738,326.394-15.145,500,277.777v111.111C842.677,551.265,676.01,421.636,500,500z"/>
<path fill="#0EB7E5" d="M500,500c186.943-46.61,353.61,120.057,500,500H888.889C821.827,653.227,692.197,486.561,500,500z"/>
<path fill="#0EB7E5" d="M500,500c191.611,20.139,284.204,186.806,277.777,500h-111.11C740.759,719.773,685.203,553.106,500,500z"/>
<path fill="#0EB7E5" d="M500,500c173.168,84.46,191.686,251.126,55.556,500H444.444C637.352,779.913,655.871,613.247,500,500z"/>
<path fill="#0EB7E5" d="M500,500c133.838,138.593,78.282,305.26-166.667,500H222.222C515.146,826.394,607.738,659.727,500,500z"/>
<path fill="#0EB7E5" d="M500,500c78.364,176.01-51.265,342.677-388.889,500H0C379.943,853.61,546.61,686.943,500,500z"/>
<path fill="#0EB7E5" d="M500,500C513.44,692.197,346.773,821.827,0,888.889V777.777C313.194,784.204,479.861,691.611,500,500z"/>
<path fill="#0EB7E5" d="M500,500C446.894,685.203,280.227,740.759,0,666.667V555.556C248.874,691.687,415.54,673.168,500,500z"/>
<path fill="#0EB7E5" d="M500,500C386.753,655.871,220.087,637.352,0,444.444V333.334C194.741,578.282,361.407,633.838,500,500z"/>
<path fill="#0EB7E5" d="M500,500C340.272,607.738,173.605,515.146,0,222.222V111.111C157.324,448.735,323.99,578.364,500,500z"/>
<path display="none" fill="#0EB7E5" d="M500,500C307.803,513.44,178.173,346.773,111.111,0h111.111
	C215.796,313.194,308.389,479.861,500,500z"/>
<path display="none" fill="#0EB7E5" d="M500,500C314.797,446.894,259.241,280.227,333.333,0h111.111
	C308.314,248.874,326.832,415.54,500,500z"/>
<path display="none" fill="#0EB7E5" d="M500,500C344.129,386.753,362.647,220.087,555.556,0h111.111
	C421.718,194.741,366.162,361.407,500,500z"/>
<path display="none" fill="#0EB7E5" d="M500,500C392.262,340.272,484.854,173.606,777.777,0h111.111
	C551.265,157.324,421.636,323.99,500,500z"/>
<path display="none" fill="#0EB7E5" d="M500,500C453.39,313.056,620.057,146.39,1000,0v111.111
	C653.227,178.173,486.56,307.803,500,500z"/>
<path display="none" fill="#0EB7E5" d="M500,500c20.139-191.611,186.806-284.204,500-277.778v111.111
	C719.772,259.241,553.106,314.797,500,500z"/>
<path display="none" fill="#0EB7E5" d="M500,500c84.46-173.167,251.126-191.686,500-55.556v111.111
	C779.913,362.648,613.247,344.129,500,500z"/>
<path display="none" fill="#0EB7E5" d="M500,500c138.593-133.837,305.26-78.282,500,166.667v111.11
	C826.394,484.855,659.727,392.262,500,500z"/>
<path display="none" fill="#0EB7E5" d="M500,500c176.01-78.364,342.677,51.265,500,388.889V1000
	C853.61,620.057,686.943,453.39,500,500z"/>
<path display="none" fill="#0EB7E5" d="M500,500c192.197-13.439,321.827,153.227,388.889,500H777.777
	C784.204,686.806,691.611,520.139,500,500z"/>
<path display="none" fill="#0EB7E5" d="M500,500c185.203,53.106,240.759,219.773,166.667,500H555.556
	C691.686,751.126,673.168,584.46,500,500z"/>
<path display="none" fill="#0EB7E5" d="M500,500c155.871,113.247,137.352,279.913-55.556,500H333.333
	C578.282,805.26,633.838,638.593,500,500z"/>
<path display="none" fill="#0EB7E5" d="M500,500c107.738,159.727,15.146,326.394-277.778,500H111.111
	C448.735,842.677,578.364,676.01,500,500z"/>
<path display="none" fill="#0EB7E5" d="M500,500c46.61,186.943-120.057,353.61-500,500V888.889
	C346.773,821.827,513.44,692.197,500,500z"/>
<path display="none" fill="#0EB7E5" d="M500,500C479.861,691.611,313.194,784.204,0,777.777v-111.11
	C280.227,740.759,446.894,685.203,500,500z"/>
<path display="none" fill="#0EB7E5" d="M500,500C415.54,673.168,248.874,691.687,0,555.556V444.444
	C220.087,637.352,386.753,655.871,500,500z"/>
<path display="none" fill="#0EB7E5" d="M500,500C361.407,633.838,194.741,578.282,0,333.334V222.222
	C173.605,515.146,340.272,607.738,500,500z"/>
<path display="none" fill="#0EB7E5" d="M500,500C323.99,578.364,157.324,448.735,0,111.111V0C146.39,379.943,313.057,546.61,500,500
	z"/>
</svg>
